HIERARCHY
ROOT Hips
{
	OFFSET 0.000000 89.005402 0.000000
	CHANNELS 6 Xposition Yposition Zposition Xrotation Yrotation Zrotation
	JOINT Spine
	{
		OFFSET 0.116900 10.681000 0.373400
		CHANNELS 3 Xrotation Yrotation Zrotation
		JOINT Spine1
		{
			OFFSET 0.000000 13.840401 0.053500
			CHANNELS 3 Xrotation Yrotation Zrotation
			JOINT Spine2
			{
				OFFSET 0.000000 14.712700 -0.366200
				CHANNELS 3 Xrotation Yrotation Zrotation
				JOINT Neck
				{
					OFFSET 0.000000 35.415497 -3.314200
					CHANNELS 3 Xrotation Yrotation Zrotation
					JOINT Head
					{
						OFFSET 0.000000 16.899200 1.218300
						CHANNELS 3 Xrotation Yrotation Zrotation
						JOINT HeadTop_End
						{
							OFFSET 0.000000 22.206207 2.192500
							CHANNELS 3 Xrotation Yrotation Zrotation
							End Site
							{
								OFFSET 0.000000 22.314178 0.000000
							}
						}
					}
				}
				JOINT LeftShoulder
				{
					OFFSET 12.896400 26.716293 -4.548400
					CHANNELS 3 Xrotation Yrotation Zrotation
					JOINT LeftArm
					{
						OFFSET 19.027000 -4.857010 -1.718400
						CHANNELS 3 Xrotation Yrotation Zrotation
						JOINT LeftForeArm
						{
							OFFSET 24.179897 0.000000 0.000000
							CHANNELS 3 Xrotation Yrotation Zrotation
							JOINT LeftHand
							{
								OFFSET 27.156403 0.000000 0.000000
								CHANNELS 3 Xrotation Yrotation Zrotation
								JOINT LeftHandIndex1
								{
									OFFSET 16.441200 0.000000 0.000000
									CHANNELS 3 Xrotation Yrotation Zrotation
									JOINT LeftHandIndex2
									{
										OFFSET 4.821899 0.000000 0.000000
										CHANNELS 3 Xrotation Yrotation Zrotation
										JOINT LeftHandIndex3
										{
											OFFSET 6.386497 0.000000 0.000000
											CHANNELS 3 Xrotation Yrotation Zrotation
											JOINT LeftHandIndex4
											{
												OFFSET 5.188988 0.000000 0.000000
												CHANNELS 3 Xrotation Yrotation Zrotation
												End Site
												{
													OFFSET -0.178703 5.185913 0.000177
												}
											}
										}
									}
								}
								JOINT LeftHandThumb1
								{
									OFFSET 6.534897 -5.032593 5.900300
									CHANNELS 3 Xrotation Yrotation Zrotation
									JOINT LeftHandThumb2
									{
										OFFSET 3.818176 -2.204422 2.204423
										CHANNELS 3 Xrotation Yrotation Zrotation
										JOINT LeftHandThumb3
										{
											OFFSET 3.252098 -1.877594 1.877601
											CHANNELS 3 Xrotation Yrotation Zrotation
											JOINT LeftHandThumb4
											{
												OFFSET 5.251778 -3.032120 3.032117
												CHANNELS 3 Xrotation Yrotation Zrotation
												End Site
												{
													OFFSET 0.000023 6.780014 0.000000
												}
											}
										}
									}
								}
							}
						}
					}
				}
				JOINT RightShoulder
				{
					OFFSET -12.896300 26.716293 -4.548400
					CHANNELS 3 Xrotation Yrotation Zrotation
					JOINT RightArm
					{
						OFFSET -19.027000 -4.857010 -1.718400
						CHANNELS 3 Xrotation Yrotation Zrotation
						JOINT RightForeArm
						{
							OFFSET -24.179897 0.000000 0.000000
							CHANNELS 3 Xrotation Yrotation Zrotation
							JOINT RightHand
							{
								OFFSET -27.156403 0.000000 0.000000
								CHANNELS 3 Xrotation Yrotation Zrotation
								JOINT RightHandThumb1
								{
									OFFSET -6.591202 -4.852203 5.988100
									CHANNELS 3 Xrotation Yrotation Zrotation
									JOINT RightHandThumb2
									{
										OFFSET -3.818176 -2.204422 2.204423
										CHANNELS 3 Xrotation Yrotation Zrotation
										JOINT RightHandThumb3
										{
											OFFSET -3.252098 -1.877594 1.877601
											CHANNELS 3 Xrotation Yrotation Zrotation
											JOINT RightHandThumb4
											{
												OFFSET -5.251778 -3.032120 3.032117
												CHANNELS 3 Xrotation Yrotation Zrotation
												End Site
												{
													OFFSET -0.000023 6.780014 0.000000
												}
											}
										}
									}
								}
								JOINT RightHandIndex1
								{
									OFFSET -16.029404 0.000000 0.000000
									CHANNELS 3 Xrotation Yrotation Zrotation
									JOINT RightHandIndex2
									{
										OFFSET -5.213303 0.000000 0.000000
										CHANNELS 3 Xrotation Yrotation Zrotation
										JOINT RightHandIndex3
										{
											OFFSET -6.386528 0.000000 0.000000
											CHANNELS 3 Xrotation Yrotation Zrotation
											JOINT RightHandIndex4
											{
												OFFSET -5.189026 0.000000 0.000000
												CHANNELS 3 Xrotation Yrotation Zrotation
												End Site
												{
													OFFSET 0.236702 5.183624 0.001972
												}
											}
										}
									}
								}
							}
						}
					}
				}
			}
		}
	}
	JOINT LeftUpLeg
	{
		OFFSET 14.073000 -7.904099 -1.463000
		CHANNELS 3 Xrotation Yrotation Zrotation
		JOINT LeftLeg
		{
			OFFSET -0.109806 -34.073280 4.093200
			CHANNELS 3 Xrotation Yrotation Zrotation
			JOINT LeftFoot
			{
				OFFSET 0.109806 -29.899420 -6.319000
				CHANNELS 3 Xrotation Yrotation Zrotation
				JOINT LeftToeBase
				{
					OFFSET 1.551100 -14.988700 20.535801
					CHANNELS 3 Xrotation Yrotation Zrotation
					JOINT LeftToe_End
					{
						OFFSET 0.221200 0.570800 13.248301
						CHANNELS 3 Xrotation Yrotation Zrotation
						End Site
						{
							OFFSET 0.000000 13.262435 0.000000
						}
					}
				}
			}
		}
	}
	JOINT RightUpLeg
	{
		OFFSET -13.839300 -7.904099 -1.463000
		CHANNELS 3 Xrotation Yrotation Zrotation
		JOINT RightLeg
		{
			OFFSET 0.109694 -34.073219 4.093300
			CHANNELS 3 Xrotation Yrotation Zrotation
			JOINT RightFoot
			{
				OFFSET -0.109694 -29.899384 -6.319200
				CHANNELS 3 Xrotation Yrotation Zrotation
				JOINT RightToeBase
				{
					OFFSET -1.551100 -14.988700 20.535801
					CHANNELS 3 Xrotation Yrotation Zrotation
					JOINT RightToe_End
					{
						OFFSET -0.221200 0.570900 13.248299
						CHANNELS 3 Xrotation Yrotation Zrotation
						End Site
						{
							OFFSET 0.000000 13.262440 0.000000
						}
					}
				}
			}
		}
	}
}
MOTION
Frames: 7
Frame Time: 0.033333
11.143129 12.740349 -4.574814 79.194377 -24.550078 -12.916630 4.620273 3.041521 9.665547 1.003152 0.191933 5.987456 1.248965 0.035000 5.712170 5.328513 2.382104 -4.515263 22.978976 2.154590 -5.608892 0.000001 -0.000000 -0.000000 -8.914317 2.145081 26.108490 -125.832766 -21.258875 -73.678548 -0.000011 -26.839259 -0.000006 -130.589037 -3.591436 -0.540589 -1.884793 2.168868 -40.112444 2.911482 5.061263 -59.797855 0.514478 2.402600 -24.169470 -0.000004 -0.000002 0.000000 1.624820 0.632526 2.778319 19.632795 -0.746851 7.815897 -4.435630 -9.351775 1.584861 -0.000000 -0.000002 -0.000001 -10.581163 23.743829 -8.741624 -83.623638 -1.850936 63.239957 0.000375 97.520512 -0.000372 -1.809439 -13.166483 22.535087 8.377131 -4.904141 11.022002 21.620199 -18.183912 -18.379209 -0.702873 -49.821227 -32.535135 -0.000000 0.000000 0.000000 -0.995933 1.202731 14.563188 2.049197 -3.859795 55.915555 1.713164 -3.610204 50.760603 0.000002 0.000002 -0.000003 3.040360 21.812773 14.662446 14.507554 -11.627983 -12.525124 4.252543 8.227566 -7.386469 66.378838 -5.679727 -2.936598 -0.000000 -0.000001 -0.000000 -33.208516 -28.650335 -23.739564 65.894728 -12.337991 8.995013 -29.007257 -11.169968 16.407974 -6.634571 -0.000007 -0.000002 -0.000000 0.000000 0.000000 
11.598442 11.495857 -4.848175 82.019008 -21.275641 -13.317114 2.836881 1.300307 10.461608 0.512550 -0.376286 5.782970 0.656981 -0.507170 5.603196 3.535743 2.524001 -6.121657 20.027397 -0.237996 -4.813807 0.000001 -0.000000 0.000000 -4.594966 3.219685 28.571103 -120.344067 -38.644244 -61.956728 0.000008 -23.597802 0.000007 -150.545210 2.240666 -0.059141 -1.790474 1.488246 -34.697767 2.091891 4.486921 -49.974162 0.514377 2.402386 -24.167156 0.000001 -0.000001 -0.000002 2.005656 1.821200 3.168436 20.742265 4.137236 8.975854 -3.766720 -7.585433 2.182403 0.000001 -0.000002 -0.000002 -6.981223 15.831361 -7.286237 -89.066801 3.631856 67.599557 0.001052 94.208157 -0.001045 5.130976 -11.586181 13.902675 8.377131 -4.904142 11.022001 21.620192 -18.183914 -18.379211 -0.702873 -49.821223 -32.535131 0.000001 -0.000000 -0.000001 -0.995934 1.202723 14.563184 2.049192 -3.859783 55.915552 1.713170 -3.610201 50.760586 0.000001 -0.000000 -0.000002 0.543283 18.009814 17.226487 14.000428 -9.854333 -11.045145 7.887120 7.429114 -15.407631 63.777984 -0.402890 1.273655 -0.000000 0.000001 -0.000000 -34.922378 -33.715764 -25.820260 64.972728 -8.261142 8.697779 -30.855567 -13.345712 13.594811 -4.663126 -0.000015 -0.000004 -0.000000 -0.000000 0.000000 
12.088075 10.504021 -4.956047 85.463937 -17.904525 -13.432668 1.445617 -0.408421 10.579950 0.123030 -1.032859 5.357650 0.161668 -1.122284 5.255574 -0.010499 3.032545 -8.023519 17.278862 -2.412239 -2.873326 0.000000 0.000000 -0.000000 -0.674968 3.782529 32.112162 -100.236113 -44.997013 -35.972445 0.000009 -33.892970 0.000003 -161.488253 2.052901 -1.932518 -1.421728 0.136408 -23.588273 0.991918 3.263314 -33.806619 0.514028 2.401624 -24.158996 0.000004 -0.000001 0.000001 2.508465 3.423838 3.680348 22.209743 10.677467 10.519399 -2.891547 -5.197436 2.937664 -0.000000 -0.000004 0.000001 -3.561431 8.653733 -6.365846 -95.949773 7.986885 70.341523 0.005945 91.739105 -0.006215 12.047267 -10.896237 7.368253 8.377124 -4.904142 11.021997 21.620202 -18.183914 -18.379209 -0.702875 -49.821227 -32.535128 -0.000001 0.000002 -0.000003 -0.995946 1.202737 14.563196 2.049208 -3.859806 55.915555 1.713163 -3.610199 50.760614 0.000001 -0.000003 -0.000000 -2.665822 14.566323 18.909420 17.595023 -9.233534 -6.194640 4.217584 6.952416 -24.370627 60.475123 7.438332 5.788925 0.000000 0.000001 0.000000 -37.989632 -38.741301 -28.344508 63.640629 -3.925436 8.175561 -32.201466 -16.017654 10.294251 -2.128682 -0.000804 0.126303 0.000000 -0.000000 0.000001 
12.408918 9.988426 -4.581200 88.645945 -14.327252 -13.109260 0.479428 -1.719672 9.662353 -0.165966 -1.536232 4.701830 -0.208829 -1.578765 4.655735 -4.542484 3.325757 -9.262501 15.575256 -5.119017 -0.794275 -0.000001 -0.000001 -0.000000 2.173373 3.894243 35.119781 -88.390120 -37.958285 -18.070010 0.000013 -49.467819 0.000008 -156.319548 -4.607650 -5.887966 -0.598633 -1.480048 -9.020604 0.248574 1.690023 -16.733540 0.513751 2.401010 -24.152215 -0.000001 0.000001 -0.000000 2.915728 4.749037 4.091880 23.411848 16.040865 11.789121 -2.188065 -3.217831 3.520285 -0.000002 0.000001 0.000000 -0.995547 2.780627 -5.817631 -101.863303 10.326304 70.417051 0.039738 90.660769 -0.039722 20.226253 -10.216913 5.526077 8.377128 -4.904142 11.021997 21.620202 -18.183914 -18.379213 -0.702872 -49.821223 -32.535135 0.000001 0.000000 -0.000000 -0.995931 1.202740 14.563184 2.049181 -3.859798 55.915562 1.713187 -3.610209 50.760590 0.000001 -0.000001 -0.000000 -5.640855 10.658100 18.755713 21.168474 -9.620396 -0.828412 -0.151290 8.495602 -30.754433 61.085633 9.428931 7.885702 0.000000 0.000000 -0.000000 -41.237318 -43.131927 -31.348912 61.968066 -1.143397 7.690584 -33.089077 -17.908558 8.054375 1.133616 -0.003360 0.367309 0.000000 -0.000000 -0.000000 
12.483887 9.876320 -3.762596 90.708184 -10.698375 -12.604154 -0.164324 -2.520702 8.044972 -0.412407 -1.785778 3.930563 -0.489164 -1.793292 3.914240 -8.384103 2.999541 -9.376905 15.121504 -8.423007 0.292958 0.000000 0.000002 -0.000000 3.749033 3.422854 36.780845 -90.705035 -30.430719 -15.460159 0.000009 -61.095386 0.000012 -138.535538 -14.871887 -3.026845 0.470816 -2.758146 4.536412 0.019208 0.474575 -4.636150 0.514208 2.401982 -24.163037 -0.000001 0.000002 -0.000001 3.094527 5.338956 4.272074 23.940337 18.416944 12.359063 -1.880180 -2.335081 3.768305 0.000001 -0.000001 0.000001 0.381945 -1.216163 -5.455722 -104.814696 10.851394 68.176127 -0.002039 90.347536 0.002424 29.388316 -8.932590 7.363281 8.377130 -4.904142 11.022001 21.620201 -18.183914 -18.379209 -0.702874 -49.821223 -32.535131 0.000002 0.000000 -0.000002 -0.995925 1.202723 14.563179 2.049193 -3.859791 55.915555 1.713194 -3.610211 50.760600 -0.000001 -0.000001 0.000000 -7.246825 6.599475 16.647234 23.203525 -5.640692 3.678314 1.885836 10.602278 -32.089748 50.972209 14.089720 17.155050 -0.000000 -0.000000 0.000000 -43.082958 -46.599526 -33.896573 59.879333 -0.685171 7.261356 -33.431792 -18.663943 7.395548 4.355448 -0.011379 0.708106 0.000001 -0.000000 0.000000 
12.471976 9.942726 -2.903946 91.743941 -7.382910 -12.341938 -0.649455 -2.973781 6.594359 -0.699667 -1.871531 3.246443 -0.765554 -1.864613 3.233228 -10.092813 2.237403 -8.924400 15.424714 -11.661303 0.252205 0.000000 -0.000000 -0.000000 4.346060 2.613376 37.307473 -96.888399 -26.873069 -20.108116 -0.000014 -65.793997 -0.000016 -117.939158 -19.073534 6.593235 1.296675 -3.446400 13.345447 -0.000001 0.000000 -0.000013 0.515924 2.405820 -24.204150 0.000001 -0.000000 -0.000000 3.084336 5.304876 4.261682 23.911603 18.282885 12.330139 -1.897514 -2.385499 3.754298 0.000000 -0.000001 -0.000001 0.739191 -3.316475 -5.255217 -104.719709 10.047692 65.147198 84.187450 89.929973 -84.189663 37.405732 -7.577387 10.229838 8.377130 -4.904142 11.022001 21.620197 -18.183914 -18.379211 -0.702874 -49.821223 -32.535131 -0.000002 0.000001 0.000001 -0.995933 1.202743 14.563186 2.049212 -3.859783 55.915545 1.713168 -3.610214 50.760600 -0.000000 -0.000001 0.000000 -8.278419 3.019396 14.602728 23.614382 0.631813 5.649328 10.288873 11.877947 -30.829538 27.369958 10.131121 31.677584 0.000005 0.000000 -0.000000 -42.755263 -48.899018 -34.495184 57.428408 -2.041971 6.850530 -33.092417 -19.201211 7.366478 6.024979 -0.016738 0.833365 -0.000000 -0.000000 -0.000001 
12.523975 9.954918 -2.371193 92.269784 -4.600410 -12.567252 -1.070669 -3.253555 5.970715 -1.031271 -1.902672 2.804104 -1.065933 -1.896522 2.776087 -9.777137 1.569803 -8.771874 15.841362 -14.198439 -0.146554 -0.000000 -0.000001 0.000001 4.474962 1.947199 37.348256 -101.585356 -26.014927 -25.186333 -0.000081 -65.733727 -0.000089 -105.832948 -17.254349 12.839711 1.622149 -3.669679 16.576816 -0.000002 -0.000000 0.000005 0.518616 2.411802 -24.268215 -0.000007 -0.000003 0.000002 3.020132 5.091109 4.196055 23.732437 17.422052 12.122491 -2.008109 -2.704885 3.664572 0.000002 0.000002 -0.000000 0.597019 -4.311542 -5.561551 -103.115496 8.538971 62.421078 0.053606 89.423739 -0.053035 42.365423 -7.251575 12.479515 8.377130 -4.904142 11.021999 21.620201 -18.183914 -18.379209 -0.702875 -49.821223 -32.535131 0.000000 0.000000 -0.000000 -0.995933 1.202723 14.563186 2.049197 -3.859780 55.915552 1.713176 -3.610207 50.760603 0.000000 -0.000000 0.000002 -9.731539 0.556831 14.051830 23.331013 4.952128 5.346722 19.184045 12.268242 -29.627168 21.417885 5.626473 23.544543 -0.000003 -0.000001 -0.000000 -39.835945 -49.354503 -32.672029 54.242880 -2.325058 6.822255 -31.992763 -21.217805 7.038930 4.559416 -0.018062 0.855889 -0.000001 0.000000 0.000000 
